<svg xmlns="http://www.w3.org/2000/svg" viewBox="0 0 38 46.33"><defs><style>.cls-1{fill:#fff;}</style></defs><title>buttonToggle_1</title><g id="Layer_2" data-name="Layer 2"><g id="Layer_1-2" data-name="Layer 1"><path class="cls-1" d="M32.67,15.11c1.61,1.43,3.25,2.84,4.82,4.31A2,2,0,0,1,38,20.59a4.91,4.91,0,0,1-2.26,5.15c-1.95,1.39-3.67.81-5.47.77-.52,0-1.2-1.37-1.49-2.23a2.91,2.91,0,0,0-3.13-2.06c-1.39.14-2.81,0-4.29,0l.07.64-1.06-.76c-.38-.26-.76-.72-1.15-.71-4.26,0-8.53.08-12.8.14-1.08,0-2.37-.38-2.67,1.29,0,.09-.31.14-.48.2-1.28-3.65-.6-6.71,2.73-9,.84.23,1.77.15,2.09-.64.47-1.14,1.29-1,2.14-1,4.26,0,8.53,0,12.8,0,1.9,0,3.8-.15,5.7-.25,1.15-.07,1.71.47,1.72,1.5.53.45.91.84,1.35,1.14A3.27,3.27,0,0,0,32.67,15.11Z"/><path class="cls-1" d="M32.67,15.11a3.27,3.27,0,0,1-.92-.25c-.44-.3-.82-.69-1.35-1.14,0-1-.57-1.57-1.72-1.5-1.9.1-3.8.23-5.7.25-4.27,0-8.54,0-12.8,0-.85,0-1.67-.18-2.14,1-.32.79-1.25.87-2.09.64l-1.79.37c.11-3,2.58-5,6.41-5.22l-.32-3,.34,0c.55,1.67.94,1.88,2.47,1a29.89,29.89,0,0,0,3.51-2.41,5.46,5.46,0,0,1,4.41-1c3.23.53,4.42-.15,5.64-3.25A2.55,2.55,0,0,1,27,0c1,1.08,1.66,5,.89,6a5.58,5.58,0,0,1-1.6,1.06c1.1,1,2.39,2.05,3.62,3.2a6.6,6.6,0,0,1,1.17,1.59C31.65,12.94,32.14,14,32.67,15.11Z"/><path class="cls-1" d="M3.22,23.05c.17-.06.46-.11.48-.2.3-1.67,1.59-1.27,2.67-1.29,4.27-.06,8.54-.14,12.8-.14.39,0,.77.45,1.15.71l1.06.76c-.5,1.73.2,3.15,1.15,4.5a3.19,3.19,0,0,0,.76.56l.37.14,0,0c-.6,1.05-1.23,1.19-1.93.54A2.3,2.3,0,0,0,20.41,28c-4.08,0-8.17,0-12.26,0-1.25,0-2.59-.3-3.52,1-.08.12-.42.06-.64.08v-.8c-2,1.09-2.15,1.6-1.41,4.7-2.73-1-3.4-3.31-1.49-5.58A8.36,8.36,0,0,0,3.22,23.05Z"/><path class="cls-1" d="M4,29c.22,0,.56,0,.64-.08.93-1.27,2.27-1,3.52-1,4.09,0,8.18,0,12.26,0a2.3,2.3,0,0,1,1.36.66c.7.65,1.33.51,1.93-.54,1.79,1.39,3.58,2.78,5.39,4.15.41.31.88.54,1.32.81a4,4,0,0,1-1.15.48c-1.14.06-2.28,0-3.42,0H6.32c-.37,0-.75.07-1,.09l-.29,2A7.19,7.19,0,0,1,4,29Z"/><rect class="cls-1" y="35.33" width="38" height="2.04" rx="1.02" ry="1.02"/><rect class="cls-1" y="39.81" width="38" height="2.04" rx="1.02" ry="1.02"/><rect class="cls-1" y="44.29" width="38" height="2.04" rx="1.02" ry="1.02"/><rect class="cls-1" y="35.33" width="38" height="2.04" rx="1.02" ry="1.02"/></g></g></svg>