<svg xmlns="http://www.w3.org/2000/svg" viewBox="0 0 40 48.88"><defs><style>.cls-1,.cls-2{fill:#fff;}.cls-1{stroke:#fff;stroke-miterlimit:10;stroke-width:2px;}</style></defs><title>toggleBtn</title><g id="Layer_2" data-name="Layer 2"><g id="Layer_1-2" data-name="Layer 1"><path class="cls-1" d="M33.67,16.67c1.61,1.43,3.25,2.84,4.82,4.31A1.94,1.94,0,0,1,39,22.15a4.92,4.92,0,0,1-2.26,5.15c-1.95,1.38-3.67.8-5.47.77-.52,0-1.2-1.38-1.49-2.23a2.92,2.92,0,0,0-3.13-2.07,40.69,40.69,0,0,1-4.29,0l.07.64c-.35-.26-.7-.52-1.06-.76S20.56,23,20.17,23c-4.26,0-8.53.08-12.8.14-1.08,0-2.37-.38-2.67,1.3,0,.09-.31.13-.48.2C2.94,21,3.62,17.9,7,15.64c.84.23,1.77.15,2.09-.65.47-1.14,1.29-1,2.14-1,4.26,0,8.53,0,12.8,0,1.9,0,3.8-.14,5.7-.25,1.15-.06,1.71.47,1.72,1.5.53.45.91.84,1.35,1.14A3,3,0,0,0,33.67,16.67Z"/><path class="cls-1" d="M33.67,16.67a3,3,0,0,1-.92-.26c-.44-.3-.82-.69-1.35-1.14,0-1-.57-1.56-1.72-1.5-1.9.11-3.8.24-5.7.25-4.27,0-8.54,0-12.8,0-.85,0-1.67-.19-2.14,1-.32.8-1.25.88-2.09.65L5.16,16c.11-3,2.58-5,6.41-5.23l-.32-3,.34,0c.55,1.67.94,1.87,2.47,1a32.54,32.54,0,0,0,3.51-2.41,5.39,5.39,0,0,1,4.41-1c3.23.53,4.42-.15,5.64-3.26A2.86,2.86,0,0,1,28,1.55c1,1.09,1.66,5,.89,6a5.38,5.38,0,0,1-1.6,1.06c1.1,1,2.39,2,3.62,3.21a6.55,6.55,0,0,1,1.17,1.58C32.65,14.49,33.14,15.59,33.67,16.67Z"/><path class="cls-1" d="M4.22,24.61c.17-.07.46-.11.48-.2.3-1.68,1.59-1.28,2.67-1.3,4.27-.06,8.54-.13,12.8-.14.39,0,.77.46,1.15.72s.71.5,1.06.76c-.5,1.72.2,3.15,1.15,4.5a2.91,2.91,0,0,0,.76.55l.37.14,0,0c-.6,1-1.23,1.19-1.93.54a2.19,2.19,0,0,0-1.36-.66c-4.08-.05-8.17,0-12.26,0-1.25,0-2.59-.29-3.52,1-.08.12-.42.05-.64.07v-.8c-2,1.09-2.15,1.6-1.41,4.71-2.73-1-3.4-3.31-1.49-5.58A8.43,8.43,0,0,0,4.22,24.61Z"/><path class="cls-1" d="M5,30.57c.22,0,.56.05.64-.07.93-1.27,2.27-1,3.52-1,4.09,0,8.18,0,12.26,0a2.19,2.19,0,0,1,1.36.66c.7.65,1.33.51,1.93-.54,1.79,1.38,3.58,2.77,5.39,4.14.41.31.88.55,1.32.82a4,4,0,0,1-1.15.47c-1.14.07-2.28,0-3.42,0H7.32c-.37,0-.75.07-1,.09l-.29,2A7.21,7.21,0,0,1,5,30.57Z"/><rect class="cls-1" x="1" y="36.88" width="38" height="2.04" rx="1.02" ry="1.02"/><rect class="cls-1" x="1" y="41.36" width="38" height="2.04" rx="1.02" ry="1.02"/><rect class="cls-1" x="1" y="45.85" width="38" height="2.04" rx="1.02" ry="1.02"/><rect class="cls-1" x="1" y="36.88" width="38" height="2.04" rx="1.02" ry="1.02"/><path class="cls-2" d="M27.87,13.31l-.78.06a1.35,1.35,0,0,0,.48,1.32,3.45,3.45,0,0,0,1.34.63l-.07-.94a.52.52,0,0,0-.06-.28.55.55,0,0,0-.3-.21,4.42,4.42,0,0,0-1.54-.16c-3.27.09-6.62.79-9.74-.16"/><path class="cls-2" d="M27.87,10.31l-.78.06a3.06,3.06,0,0,0-3,3c-.08,2.6,1.75,4.06,4,4.84a3,3,0,0,0,3.8-2.89c-.2-2.94-1.5-4.47-4.58-4.58s-6.22.75-9.33-.06c-3.74-1-5.34,4.81-1.6,5.78A19.34,19.34,0,0,0,22,17c.82,0,1.64-.11,2.46-.17.5,0,2.4-.45,2.79-.18L25.89,14.9c-.05-.2-.05-.06,0,.42l3.79-2.89.39.94-3,3,.78-.06c3.82-.31,3.85-6.31,0-6Z"/></g></g></svg>